<mxfile host="65bd71144e">
    <diagram id="QRi6Vc4cu_FcUORwAKPn" name="Страница 1">
        <mxGraphModel dx="768" dy="1550" grid="1" gridSize="10" guides="1" tooltips="1" connect="1" arrows="1" fold="1" page="1" pageScale="1" pageWidth="827" pageHeight="1169" background="#808080" math="0" shadow="0">
            <root>
                <mxCell id="0"/>
                <mxCell id="1" parent="0"/>
                <mxCell id="79" style="edgeStyle=none;html=1;entryX=0.5;entryY=0;entryDx=0;entryDy=0;fontColor=#000000;" parent="1" source="2" target="28" edge="1">
                    <mxGeometry relative="1" as="geometry"/>
                </mxCell>
                <mxCell id="2" value="&lt;span style=&quot;background-color: rgb(255 , 255 , 255)&quot;&gt;&lt;b&gt;start&lt;/b&gt;&lt;/span&gt;" style="ellipse;whiteSpace=wrap;html=1;fontColor=#000000;" parent="1" vertex="1">
                    <mxGeometry x="241.25" y="-200" width="110" height="50" as="geometry"/>
                </mxCell>
                <mxCell id="13" style="edgeStyle=none;html=1;entryX=0.5;entryY=0;entryDx=0;entryDy=0;fontColor=#000000;" parent="1" source="3" target="4" edge="1">
                    <mxGeometry relative="1" as="geometry"/>
                </mxCell>
                <mxCell id="15" style="edgeStyle=none;html=1;" parent="1" source="3" edge="1">
                    <mxGeometry relative="1" as="geometry">
                        <mxPoint x="440" y="640" as="targetPoint"/>
                        <Array as="points">
                            <mxPoint x="550" y="210"/>
                            <mxPoint x="550" y="470"/>
                            <mxPoint x="550" y="640"/>
                        </Array>
                    </mxGeometry>
                </mxCell>
                <mxCell id="3" value="&lt;div style=&quot;font-family: &amp;#34;consolas&amp;#34; , &amp;#34;courier new&amp;#34; , monospace ; font-size: 10px ; line-height: 13px&quot;&gt;&lt;font style=&quot;background-color: rgb(255 , 255 , 255)&quot;&gt;&lt;b&gt;&amp;nbsp;while (i &amp;lt; length)&lt;/b&gt;&lt;/font&gt;&lt;/div&gt;" style="shape=hexagon;perimeter=hexagonPerimeter2;whiteSpace=wrap;html=1;fixedSize=1;fontColor=#000000;" parent="1" vertex="1">
                    <mxGeometry x="230" y="170" width="120" height="80" as="geometry"/>
                </mxCell>
                <mxCell id="6" value="" style="edgeStyle=none;html=1;fontColor=#000000;" parent="1" source="4" target="5" edge="1">
                    <mxGeometry relative="1" as="geometry"/>
                </mxCell>
                <mxCell id="10" style="edgeStyle=none;html=1;entryX=1;entryY=0.5;entryDx=0;entryDy=0;" parent="1" source="4" target="7" edge="1">
                    <mxGeometry relative="1" as="geometry">
                        <mxPoint x="490" y="510" as="targetPoint"/>
                        <Array as="points">
                            <mxPoint x="490" y="325"/>
                            <mxPoint x="490" y="515"/>
                        </Array>
                    </mxGeometry>
                </mxCell>
                <mxCell id="4" value="&lt;div style=&quot;font-family: &amp;#34;consolas&amp;#34; , &amp;#34;courier new&amp;#34; , monospace ; font-size: 10px ; line-height: 13px&quot;&gt;&lt;font style=&quot;background-color: rgb(255 , 255 , 255)&quot;&gt;&lt;b&gt;array[i].Length &amp;lt;= countLettersInWord&lt;/b&gt;&lt;/font&gt;&lt;/div&gt;" style="rhombus;whiteSpace=wrap;html=1;fontColor=#000000;" parent="1" vertex="1">
                    <mxGeometry x="160" y="280" width="260" height="90" as="geometry"/>
                </mxCell>
                <mxCell id="8" value="" style="edgeStyle=none;html=1;entryX=0.5;entryY=0;entryDx=0;entryDy=0;fontColor=#000000;" parent="1" source="5" target="7" edge="1">
                    <mxGeometry relative="1" as="geometry"/>
                </mxCell>
                <mxCell id="5" value="&lt;div style=&quot;font-family: &amp;#34;consolas&amp;#34; , &amp;#34;courier new&amp;#34; , monospace ; font-size: 10px ; line-height: 13px&quot;&gt;&lt;font style=&quot;background-color: rgb(255 , 255 , 255)&quot;&gt;&lt;b&gt;newArrayIndex += 1&lt;/b&gt;&lt;/font&gt;&lt;/div&gt;" style="whiteSpace=wrap;html=1;fontColor=#000000;" parent="1" vertex="1">
                    <mxGeometry x="230" y="400" width="120" height="60" as="geometry"/>
                </mxCell>
                <mxCell id="12" style="edgeStyle=none;html=1;entryX=0;entryY=0.5;entryDx=0;entryDy=0;" parent="1" source="7" target="3" edge="1">
                    <mxGeometry relative="1" as="geometry">
                        <Array as="points">
                            <mxPoint x="100" y="515"/>
                            <mxPoint x="100" y="325"/>
                            <mxPoint x="100" y="210"/>
                        </Array>
                    </mxGeometry>
                </mxCell>
                <mxCell id="7" value="&lt;div style=&quot;font-family: &amp;#34;consolas&amp;#34; , &amp;#34;courier new&amp;#34; , monospace ; font-size: 10px ; line-height: 13px&quot;&gt;&lt;font style=&quot;background-color: rgb(255 , 255 , 255)&quot;&gt;&lt;b&gt;i += 1&lt;/b&gt;&lt;/font&gt;&lt;/div&gt;" style="whiteSpace=wrap;html=1;fontColor=#000000;" parent="1" vertex="1">
                    <mxGeometry x="230" y="490" width="120" height="50" as="geometry"/>
                </mxCell>
                <mxCell id="9" value="true" style="text;html=1;align=center;verticalAlign=middle;resizable=0;points=[];autosize=1;strokeColor=none;fillColor=none;fontColor=#000000;fontStyle=1" parent="1" vertex="1">
                    <mxGeometry x="250" y="370" width="40" height="20" as="geometry"/>
                </mxCell>
                <mxCell id="11" value="&lt;font color=&quot;#000000&quot;&gt;false&lt;/font&gt;" style="text;html=1;align=center;verticalAlign=middle;resizable=0;points=[];autosize=1;strokeColor=none;fillColor=none;fontStyle=1" parent="1" vertex="1">
                    <mxGeometry x="420" y="300" width="40" height="20" as="geometry"/>
                </mxCell>
                <mxCell id="16" value="false" style="text;html=1;align=center;verticalAlign=middle;resizable=0;points=[];autosize=1;strokeColor=none;fillColor=none;fontColor=#000000;fontStyle=1" parent="1" vertex="1">
                    <mxGeometry x="370" y="190" width="40" height="20" as="geometry"/>
                </mxCell>
                <mxCell id="81" value="" style="edgeStyle=none;html=1;fontColor=#000000;" parent="1" source="17" edge="1">
                    <mxGeometry relative="1" as="geometry">
                        <mxPoint x="291.7857142857142" y="650" as="targetPoint"/>
                    </mxGeometry>
                </mxCell>
                <mxCell id="89" style="edgeStyle=none;html=1;entryX=0.537;entryY=-0.078;entryDx=0;entryDy=0;entryPerimeter=0;fontColor=#000000;" parent="1" source="17" target="19" edge="1">
                    <mxGeometry relative="1" as="geometry"/>
                </mxCell>
                <mxCell id="17" value="&lt;div style=&quot;font-family: &amp;#34;consolas&amp;#34; , &amp;#34;courier new&amp;#34; , monospace ; font-size: 10px ; line-height: 13px&quot;&gt;&lt;font style=&quot;background-color: rgb(255 , 255 , 255)&quot;&gt;&lt;b&gt;string[] newArray = new string[newArrayIndex]&lt;/b&gt;&lt;/font&gt;&lt;/div&gt;" style="rounded=0;whiteSpace=wrap;html=1;fontColor=#000000;" parent="1" vertex="1">
                    <mxGeometry x="162.5" y="610" width="275" height="60" as="geometry"/>
                </mxCell>
                <mxCell id="37" style="edgeStyle=none;html=1;entryX=0.5;entryY=0;entryDx=0;entryDy=0;fontColor=#000000;" parent="1" source="19" target="35" edge="1">
                    <mxGeometry relative="1" as="geometry"/>
                </mxCell>
                <mxCell id="19" value="&lt;div style=&quot;font-family: &amp;#34;consolas&amp;#34; , &amp;#34;courier new&amp;#34; , monospace ; font-size: 10px ; line-height: 13px&quot;&gt;&lt;div&gt;&lt;font style=&quot;background-color: rgb(255 , 255 , 255)&quot;&gt;&lt;b&gt;length = array.Length&lt;/b&gt;&lt;/font&gt;&lt;/div&gt;&lt;div&gt;&lt;font style=&quot;background-color: rgb(255 , 255 , 255)&quot;&gt;&lt;b&gt;&amp;nbsp; &amp;nbsp; countLettersInWord = 3&lt;/b&gt;&lt;/font&gt;&lt;/div&gt;&lt;div&gt;&lt;font style=&quot;background-color: rgb(255 , 255 , 255)&quot;&gt;&lt;b&gt;&amp;nbsp; &amp;nbsp; newArrayIndex = 0&lt;/b&gt;&lt;/font&gt;&lt;/div&gt;&lt;div&gt;&lt;font style=&quot;background-color: rgb(255 , 255 , 255)&quot;&gt;&lt;b&gt;&amp;nbsp; &amp;nbsp; i = 0&lt;/b&gt;&lt;/font&gt;&lt;/div&gt;&lt;/div&gt;" style="whiteSpace=wrap;html=1;rounded=0;fontColor=#000000;" parent="1" vertex="1">
                    <mxGeometry x="187.5" y="720" width="210" height="60" as="geometry"/>
                </mxCell>
                <mxCell id="25" style="edgeStyle=none;html=1;fontColor=#000000;" parent="1" edge="1">
                    <mxGeometry relative="1" as="geometry">
                        <mxPoint x="180" y="-130" as="targetPoint"/>
                        <mxPoint x="180" y="-130" as="sourcePoint"/>
                    </mxGeometry>
                </mxCell>
                <mxCell id="39" style="edgeStyle=none;html=1;entryX=0.5;entryY=0;entryDx=0;entryDy=0;fontColor=#000000;" parent="1" source="35" target="38" edge="1">
                    <mxGeometry relative="1" as="geometry"/>
                </mxCell>
                <mxCell id="49" value="" style="edgeStyle=none;html=1;entryX=1.013;entryY=0.367;entryDx=0;entryDy=0;entryPerimeter=0;" parent="1" source="35" target="52" edge="1">
                    <mxGeometry relative="1" as="geometry">
                        <mxPoint x="360" y="1240" as="targetPoint"/>
                        <Array as="points">
                            <mxPoint x="550" y="840"/>
                            <mxPoint x="550" y="1240"/>
                        </Array>
                    </mxGeometry>
                </mxCell>
                <mxCell id="35" value="&lt;div style=&quot;font-family: &amp;#34;consolas&amp;#34; , &amp;#34;courier new&amp;#34; , monospace ; font-size: 10px ; line-height: 13px&quot;&gt;&lt;font style=&quot;background-color: rgb(255 , 255 , 255)&quot;&gt;&lt;b&gt;&amp;nbsp;while (i &amp;lt; length)&lt;/b&gt;&lt;/font&gt;&lt;/div&gt;" style="shape=hexagon;perimeter=hexagonPerimeter2;whiteSpace=wrap;html=1;fixedSize=1;fontColor=#000000;" parent="1" vertex="1">
                    <mxGeometry x="232.5" y="800" width="120" height="80" as="geometry"/>
                </mxCell>
                <mxCell id="41" style="edgeStyle=none;html=1;entryX=0.5;entryY=0;entryDx=0;entryDy=0;fontColor=#000000;" parent="1" source="38" target="40" edge="1">
                    <mxGeometry relative="1" as="geometry"/>
                </mxCell>
                <mxCell id="50" style="edgeStyle=none;html=1;entryX=1;entryY=0.5;entryDx=0;entryDy=0;" parent="1" source="38" target="42" edge="1">
                    <mxGeometry relative="1" as="geometry">
                        <mxPoint x="520" y="965" as="targetPoint"/>
                        <Array as="points">
                            <mxPoint x="490" y="965"/>
                            <mxPoint x="490" y="1070"/>
                            <mxPoint x="490" y="1155"/>
                        </Array>
                    </mxGeometry>
                </mxCell>
                <mxCell id="38" value="&lt;div style=&quot;font-family: &amp;#34;consolas&amp;#34; , &amp;#34;courier new&amp;#34; , monospace ; font-size: 10px ; line-height: 13px&quot;&gt;&lt;font style=&quot;background-color: rgb(255 , 255 , 255)&quot;&gt;&lt;b&gt;array[i].Length &amp;lt;= countLettersInWord&lt;/b&gt;&lt;/font&gt;&lt;/div&gt;" style="rhombus;whiteSpace=wrap;html=1;fontColor=#000000;" parent="1" vertex="1">
                    <mxGeometry x="162.5" y="920" width="260" height="90" as="geometry"/>
                </mxCell>
                <mxCell id="43" style="edgeStyle=none;html=1;entryX=0.5;entryY=0;entryDx=0;entryDy=0;fontColor=#000000;" parent="1" source="40" target="42" edge="1">
                    <mxGeometry relative="1" as="geometry"/>
                </mxCell>
                <mxCell id="40" value="&lt;div style=&quot;font-family: &amp;#34;consolas&amp;#34; , &amp;#34;courier new&amp;#34; , monospace ; font-size: 10px ; line-height: 13px&quot;&gt;&lt;div style=&quot;font-family: &amp;#34;consolas&amp;#34; , &amp;#34;courier new&amp;#34; , monospace ; line-height: 13px&quot;&gt;&lt;div&gt;&lt;font style=&quot;background-color: rgb(255 , 255 , 255)&quot;&gt;&lt;b&gt;newArray[newArrayIndex] = array[i]&lt;/b&gt;&lt;/font&gt;&lt;/div&gt;&lt;div&gt;&lt;font style=&quot;background-color: rgb(255 , 255 , 255)&quot;&gt;&lt;b&gt;newArrayIndex += 1&lt;/b&gt;&lt;/font&gt;&lt;/div&gt;&lt;/div&gt;&lt;/div&gt;" style="whiteSpace=wrap;html=1;fontColor=#000000;" parent="1" vertex="1">
                    <mxGeometry x="187.5" y="1040" width="210" height="50" as="geometry"/>
                </mxCell>
                <mxCell id="51" style="edgeStyle=none;html=1;entryX=0;entryY=0.5;entryDx=0;entryDy=0;" parent="1" source="42" target="35" edge="1">
                    <mxGeometry relative="1" as="geometry">
                        <mxPoint x="100" y="1155" as="targetPoint"/>
                        <Array as="points">
                            <mxPoint x="100" y="1155"/>
                            <mxPoint x="100" y="990"/>
                            <mxPoint x="100" y="840"/>
                        </Array>
                    </mxGeometry>
                </mxCell>
                <mxCell id="42" value="&lt;div style=&quot;font-family: &amp;#34;consolas&amp;#34; , &amp;#34;courier new&amp;#34; , monospace ; font-size: 10px ; line-height: 13px&quot;&gt;&lt;font style=&quot;background-color: rgb(255 , 255 , 255)&quot;&gt;&lt;b&gt;i += 1&lt;/b&gt;&lt;/font&gt;&lt;/div&gt;" style="whiteSpace=wrap;html=1;fontColor=#000000;" parent="1" vertex="1">
                    <mxGeometry x="232.5" y="1130" width="120" height="50" as="geometry"/>
                </mxCell>
                <mxCell id="44" value="true" style="text;html=1;align=center;verticalAlign=middle;resizable=0;points=[];autosize=1;strokeColor=none;fillColor=none;fontColor=#000000;fontStyle=1" parent="1" vertex="1">
                    <mxGeometry x="240" y="260" width="40" height="20" as="geometry"/>
                </mxCell>
                <mxCell id="45" value="&lt;b&gt;true&lt;/b&gt;" style="text;html=1;align=center;verticalAlign=middle;resizable=0;points=[];autosize=1;strokeColor=none;fillColor=none;fontColor=#000000;" parent="1" vertex="1">
                    <mxGeometry x="250" y="890" width="40" height="20" as="geometry"/>
                </mxCell>
                <mxCell id="46" value="&lt;b&gt;true&lt;/b&gt;" style="text;html=1;align=center;verticalAlign=middle;resizable=0;points=[];autosize=1;strokeColor=none;fillColor=none;fontColor=#000000;" parent="1" vertex="1">
                    <mxGeometry x="240" y="1010" width="40" height="20" as="geometry"/>
                </mxCell>
                <mxCell id="47" value="&lt;font color=&quot;#000000&quot;&gt;&lt;b&gt;false&lt;/b&gt;&lt;/font&gt;" style="text;html=1;align=center;verticalAlign=middle;resizable=0;points=[];autosize=1;strokeColor=none;fillColor=none;" parent="1" vertex="1">
                    <mxGeometry x="422.5" y="930" width="40" height="20" as="geometry"/>
                </mxCell>
                <mxCell id="48" value="&lt;b&gt;false&lt;/b&gt;" style="text;html=1;align=center;verticalAlign=middle;resizable=0;points=[];autosize=1;strokeColor=none;fillColor=none;fontColor=#000000;" parent="1" vertex="1">
                    <mxGeometry x="370" y="810" width="40" height="20" as="geometry"/>
                </mxCell>
                <mxCell id="103" style="edgeStyle=none;html=1;fontColor=#000000;" parent="1" source="52" edge="1">
                    <mxGeometry relative="1" as="geometry">
                        <mxPoint x="292.5" y="1300" as="targetPoint"/>
                    </mxGeometry>
                </mxCell>
                <mxCell id="52" value="&lt;font style=&quot;background-color: rgb(255 , 255 , 255)&quot;&gt;&lt;b&gt;&lt;br&gt;&lt;br&gt;&lt;/b&gt;&lt;/font&gt;&lt;div style=&quot;font-family: &amp;#34;consolas&amp;#34; , &amp;#34;courier new&amp;#34; , monospace ; font-size: 10px ; line-height: 13px&quot;&gt;&lt;div&gt;&lt;font style=&quot;background-color: rgb(255 , 255 , 255)&quot;&gt;&lt;b&gt;&amp;nbsp;return newArray&lt;/b&gt;&lt;/font&gt;&lt;/div&gt;&lt;/div&gt;&lt;font style=&quot;background-color: rgb(51 , 51 , 51)&quot;&gt;&lt;br&gt;&lt;/font&gt;" style="rounded=0;whiteSpace=wrap;html=1;fontColor=#000000;" parent="1" vertex="1">
                    <mxGeometry x="232.5" y="1220" width="120" height="50" as="geometry"/>
                </mxCell>
                <mxCell id="56" value="" style="edgeStyle=none;html=1;fontColor=#000000;" parent="1" source="53" target="55" edge="1">
                    <mxGeometry relative="1" as="geometry"/>
                </mxCell>
                <mxCell id="53" value="&lt;div style=&quot;font-family: &amp;#34;consolas&amp;#34; , &amp;#34;courier new&amp;#34; , monospace ; font-size: 10px ; line-height: 13px&quot;&gt;&lt;span style=&quot;font-family: &amp;#34;consolas&amp;#34; , &amp;#34;courier new&amp;#34; , monospace ; background-color: rgb(255 , 255 , 255)&quot;&gt;&lt;font&gt;&lt;b&gt;PrintArray(array)&lt;/b&gt;&lt;/font&gt;&lt;/span&gt;&lt;/div&gt;&lt;div style=&quot;font-family: &amp;#34;consolas&amp;#34; , &amp;#34;courier new&amp;#34; , monospace ; font-size: 10px ; line-height: 13px&quot;&gt;&lt;span style=&quot;font-family: &amp;#34;consolas&amp;#34; , &amp;#34;courier new&amp;#34; , monospace ; background-color: rgb(255 , 255 , 255)&quot;&gt;&lt;font&gt;&lt;b&gt;PrintArray(finalArray)&lt;/b&gt;&lt;/font&gt;&lt;/span&gt;&lt;br&gt;&lt;/div&gt;" style="shape=parallelogram;perimeter=parallelogramPerimeter;whiteSpace=wrap;html=1;fixedSize=1;rounded=0;fontColor=#000000;" parent="1" vertex="1">
                    <mxGeometry x="192.5" y="1370" width="200" height="70" as="geometry"/>
                </mxCell>
                <mxCell id="55" value="&lt;font style=&quot;background-color: rgb(255 , 255 , 255)&quot;&gt;&lt;b&gt;end&lt;/b&gt;&lt;/font&gt;" style="ellipse;whiteSpace=wrap;html=1;rounded=0;fontColor=#000000;" parent="1" vertex="1">
                    <mxGeometry x="233.75" y="1480" width="120" height="60" as="geometry"/>
                </mxCell>
                <mxCell id="28" value="&lt;div style=&quot;font-family: &amp;#34;consolas&amp;#34; , &amp;#34;courier new&amp;#34; , monospace ; font-size: 10px ; line-height: 13px&quot;&gt;&lt;span style=&quot;background-color: rgb(255 , 255 , 255)&quot;&gt;&lt;b&gt;string[] array = {&quot;home&quot;, &quot;9&quot;, &quot;ox&quot;, &quot;fortune&quot;, &quot;:-)&quot;}&lt;/b&gt;&lt;/span&gt;&lt;/div&gt;" style="shape=parallelogram;perimeter=parallelogramPerimeter;whiteSpace=wrap;html=1;fixedSize=1;fontColor=#000000;" parent="1" vertex="1">
                    <mxGeometry x="126.25" y="-120" width="340" height="40" as="geometry"/>
                </mxCell>
                <mxCell id="62" style="edgeStyle=none;html=1;entryX=0.5;entryY=0;entryDx=0;entryDy=0;fontColor=#000000;" parent="1" source="61" target="3" edge="1">
                    <mxGeometry relative="1" as="geometry"/>
                </mxCell>
                <mxCell id="61" value="&lt;div style=&quot;font-family: &amp;#34;consolas&amp;#34; , &amp;#34;courier new&amp;#34; , monospace ; font-size: 10px ; line-height: 13px&quot;&gt;&lt;div&gt;&lt;font style=&quot;background-color: rgb(255 , 255 , 255)&quot;&gt;&lt;b&gt;int length = array.Length&lt;/b&gt;&lt;/font&gt;&lt;/div&gt;&lt;div&gt;&lt;font style=&quot;background-color: rgb(255 , 255 , 255)&quot;&gt;&lt;b&gt;&amp;nbsp; &amp;nbsp; int countLettersInWord = 3&lt;/b&gt;&lt;/font&gt;&lt;/div&gt;&lt;div&gt;&lt;font style=&quot;background-color: rgb(255 , 255 , 255)&quot;&gt;&lt;b&gt;&amp;nbsp; &amp;nbsp;int newArrayIndex = 0&lt;/b&gt;&lt;/font&gt;&lt;/div&gt;&lt;div&gt;&lt;font style=&quot;background-color: rgb(255 , 255 , 255)&quot;&gt;&lt;b&gt;int i = 0&lt;/b&gt;&lt;/font&gt;&lt;/div&gt;&lt;/div&gt;" style="whiteSpace=wrap;html=1;rounded=0;fontColor=#000000;" parent="1" vertex="1">
                    <mxGeometry x="185" y="70" width="210" height="60" as="geometry"/>
                </mxCell>
                <mxCell id="86" style="edgeStyle=none;html=1;entryX=0.5;entryY=0;entryDx=0;entryDy=0;fontColor=#000000;" parent="1" target="83" edge="1">
                    <mxGeometry relative="1" as="geometry">
                        <mxPoint x="295.41666666666674" y="-80" as="sourcePoint"/>
                    </mxGeometry>
                </mxCell>
                <mxCell id="85" style="edgeStyle=none;html=1;entryX=0.533;entryY=-0.05;entryDx=0;entryDy=0;entryPerimeter=0;fontColor=#000000;" parent="1" source="83" target="61" edge="1">
                    <mxGeometry relative="1" as="geometry"/>
                </mxCell>
                <mxCell id="83" value="&lt;div style=&quot;font-family: &amp;#34;consolas&amp;#34; , &amp;#34;courier new&amp;#34; , monospace ; font-size: 10px ; line-height: 13px&quot;&gt;&lt;font style=&quot;background-color: rgb(255 , 255 , 255)&quot;&gt;&lt;b&gt;string[] SelectWordInArray(string[] array)&lt;/b&gt;&lt;/font&gt;&lt;/div&gt;" style="whiteSpace=wrap;html=1;rounded=0;fontColor=#000000;" parent="1" vertex="1">
                    <mxGeometry x="166.25" y="-20" width="260" height="40" as="geometry"/>
                </mxCell>
                <mxCell id="100" style="edgeStyle=none;html=1;fontColor=#000000;" parent="1" source="90" edge="1">
                    <mxGeometry relative="1" as="geometry">
                        <mxPoint x="288.75" y="1370" as="targetPoint"/>
                    </mxGeometry>
                </mxCell>
                <mxCell id="90" value="&lt;div style=&quot;font-family: &amp;#34;consolas&amp;#34; , &amp;#34;courier new&amp;#34; , monospace ; font-size: 10px ; line-height: 13px&quot;&gt;&lt;div style=&quot;font-family: &amp;#34;consolas&amp;#34; , &amp;#34;courier new&amp;#34; , monospace ; line-height: 13px&quot;&gt;&lt;font style=&quot;background-color: rgb(255 , 255 , 255)&quot;&gt;&lt;b&gt;string[] finalArray = SelectWordInArray(array)&lt;/b&gt;&lt;/font&gt;&lt;/div&gt;&lt;/div&gt;" style="whiteSpace=wrap;html=1;rounded=0;fontColor=#000000;" parent="1" vertex="1">
                    <mxGeometry x="146.25" y="1300" width="285" height="30" as="geometry"/>
                </mxCell>
            </root>
        </mxGraphModel>
    </diagram>
</mxfile>